<svg data-v-0dd9719b="" version="1.0" xmlns="http://www.w3.org/2000/svg" xmlns:xlink="http://www.w3.org/1999/xlink" width="100%" height="100%" viewBox="0 0 340.000000 250.000000" preserveAspectRatio="xMidYMid meet" color-interpolation-filters="sRGB" style="margin: auto;"> <rect data-v-0dd9719b="" x="0" y="0" width="100%" height="100%" fill="#fff" fill-opacity="1" class="background"></rect> <rect data-v-0dd9719b="" x="0" y="0" width="100%" height="100%" fill="url(#watermark)" fill-opacity="1" class="watermarklayer"></rect> <g data-v-0dd9719b="" fill="#0085c9" class="icon-text-wrapper icon-svg-group iconsvg" transform="translate(71.79499816894531,79.51761627197266)"><g class="iconsvg-imagesvg" transform="translate(0,9.260124206542969)"><g><rect fill="#0085c9" fill-opacity="0" stroke-width="2" x="0" y="0" width="60" height="72.44451957209438" class="image-rect"></rect> <svg x="0" y="0" width="60" height="72.44451957209438" filtersec="colorsb2662361159" class="image-svg-svg primary" style="overflow: visible;"><svg version="1.1" id="cube" xmlns="http://www.w3.org/2000/svg" xmlns:xlink="http://www.w3.org/1999/xlink" x="0px" y="0px" viewBox="5.117481231689453 5.373748779296875 414.885009765625 500.9362487792969" enable-background="new 0 0 425.2 507.62" xml:space="preserve">
<g>
	<path fill="#0085C9" d="M359.25,66.14c-81.01-81-212.34-81.04-293.39-0.01c-81.01,81.01-80.98,212.37,0.03,293.38
		c40.45,40.45,93.48,60.71,146.51,60.74l0.01,86.06l145.61-145.61c0.4-0.4,0.81-0.8,1.22-1.21
		C440.27,278.47,440.24,147.13,359.25,66.14z M309.47,309.73c-53.55,53.55-140.31,53.55-193.83,0.03
		c-53.54-53.54-53.56-140.34-0.01-193.88c53.54-53.55,140.34-53.53,193.88,0.01C363.02,169.41,363.01,256.18,309.47,309.73z"></path>
	<path fill="#0085C9" d="M163.73,163.98c-26.97,26.97-26.99,70.68,0.01,97.68c26.96,26.96,70.67,26.94,97.64-0.02
		c26.96-26.97,26.98-70.67,0.01-97.64C234.39,137.01,190.69,137.02,163.73,163.98z"></path>
</g>
</svg></svg> <!----></g></g> <g transform="translate(67,0)"><g data-gra="path-name" fill-rule="" class="tp-name iconsvg-namesvg" transform="translate(0,0)"><g transform="scale(1)"><g><path d="M33.38-35.12L45.49-34.04 39.75-0.05 25.82 0.25 22.83-17.36 19.84-1.03 5.91-0.54 0.12-34.04 12.29-35.12 14.74-14.76 18.02-35.12 27.59-35.12 31.41-14.52 33.38-35.12ZM66.43-35.12L76-2.11 63.84-0.54 62.36-6.08 56.77-6.08 55.55-0.54 43.04-1.77 52.8-34.43 66.43-35.12ZM57.8-13.59L61.48-13.59 59.62-22.12 57.8-13.59ZM98.07-13.98L98.07-13.98 97.04-3.09 76.39-1.47Q76.54-10.03 76.72-18.49 76.91-26.95 77.18-35.51L77.18-35.51 89.93-35.51Q89.36-30.14 88.85-24.78 88.33-19.42 88.11-13.98L88.11-13.98Q89.27-13.93 90.39-13.93 91.52-13.93 92.67-13.93L92.67-13.93Q94.05-13.93 95.37-13.95 96.7-13.98 98.07-13.98ZM129.53-17.31L129.53-17.31Q129.53-15.08 129.02-13.01 128.5-10.94 127.54-9.12 126.57-7.31 125.18-5.8 123.8-4.29 122.07-3.21 120.34-2.13 118.3-1.53 116.27-0.93 113.99-0.93L113.99-0.93Q111.78-0.93 109.78-1.5 107.78-2.06 106.04-3.08 104.3-4.1 102.89-5.53 101.48-6.96 100.49-8.72 99.49-10.47 98.94-12.48 98.39-14.49 98.39-16.68L98.39-16.68Q98.39-18.81 98.9-20.86 99.42-22.91 100.39-24.72 101.36-26.53 102.73-28.06 104.1-29.58 105.81-30.68 107.51-31.78 109.5-32.4 111.48-33.01 113.69-33.01L113.69-33.01Q117.25-33.01 120.18-31.91 123.11-30.8 125.18-28.75 127.25-26.71 128.39-23.8 129.53-20.89 129.53-17.31ZM118.65-16.68L118.65-16.68Q118.65-17.73 118.34-18.72 118.03-19.72 117.44-20.49 116.86-21.26 115.98-21.74 115.11-22.22 113.99-22.22L113.99-22.22Q112.83-22.22 111.93-21.8 111.02-21.38 110.37-20.66 109.72-19.94 109.38-18.97 109.03-18 109.03-16.92L109.03-16.92Q109.03-15.89 109.33-14.86 109.62-13.83 110.21-13 110.8-12.16 111.67-11.65 112.54-11.13 113.69-11.13L113.69-11.13Q114.84-11.13 115.76-11.59 116.68-12.04 117.32-12.81 117.96-13.59 118.3-14.59 118.65-15.6 118.65-16.68Z" transform="translate(-0.12000000476837158, 35.5099983215332)"></path></g> <!----> <!----> <!----> <!----> <!----> <!----> <g data-gra="path-name-1" fill="#0085c9" transform="translate(0,38.7599983215332)"><g transform="scale(1.00818)"><path d="M29.51-34.9L30.3 0 18.06 0.59 17.96-10.72 12.33-10.72 11.99 0 1.03 0 1.96-34.41 13.61-33.87 12.87-16.3 18.31-16.3 18.35-35.19 29.51-34.9ZM62.87-17.28L62.87-17.28Q62.87-15.05 62.36-12.98 61.84-10.91 60.88-9.1 59.91-7.29 58.53-5.79 57.14-4.28 55.42-3.21 53.69-2.13 51.66-1.53 49.63-0.93 47.36-0.93L47.36-0.93Q45.15-0.93 43.16-1.49 41.16-2.06 39.43-3.07 37.69-4.09 36.28-5.52 34.87-6.95 33.88-8.7 32.89-10.45 32.34-12.46 31.79-14.46 31.79-16.64L31.79-16.64Q31.79-18.77 32.3-20.81 32.82-22.86 33.78-24.67 34.75-26.48 36.12-28 37.49-29.51 39.19-30.62 40.89-31.72 42.88-32.33 44.86-32.94 47.06-32.94L47.06-32.94Q50.61-32.94 53.53-31.84 56.46-30.74 58.53-28.69 60.59-26.65 61.73-23.75 62.87-20.85 62.87-17.28ZM52-16.64L52-16.64Q52-17.69 51.7-18.69 51.39-19.68 50.81-20.45 50.22-21.22 49.35-21.7 48.48-22.17 47.36-22.17L47.36-22.17Q46.2-22.17 45.3-21.76 44.39-21.34 43.75-20.62 43.1-19.9 42.75-18.93 42.41-17.96 42.41-16.89L42.41-16.89Q42.41-15.86 42.71-14.83 43-13.8 43.59-12.97 44.17-12.14 45.04-11.62 45.91-11.11 47.06-11.11L47.06-11.11Q48.21-11.11 49.13-11.56 50.05-12.02 50.68-12.79 51.32-13.56 51.66-14.56 52-15.56 52-16.64ZM86.32-34.7L97.87-35.09 96.11-1.91 83.28-0.73 76.43-18.5 75.35-0.39 64.34-0.39 65.22-35.09 77.46-35.68 85.92-18.06 86.32-34.7ZM129.09-21.44L129.39-4.99Q128.24-3.55 126.55-2.47 124.86-1.39 122.93-0.69 120.99 0.02 118.96 0.38 116.93 0.73 115.1 0.73L115.1 0.73Q111.55 0.73 108.56-0.54 105.58-1.81 103.41-4.05 101.24-6.29 100.02-9.32 98.8-12.36 98.8-15.86L98.8-15.86Q98.8-18.53 99.41-21.08 100.02-23.64 101.16-25.9 102.3-28.17 103.94-30.06 105.58-31.96 107.66-33.33 109.74-34.7 112.21-35.46 114.68-36.22 117.49-36.22L117.49-36.22Q118.55-36.22 119.75-36.13 120.95-36.05 122.13-35.84 123.32-35.63 124.44-35.27 125.57-34.9 126.5-34.36L126.5-34.36 125.82-25.01Q124.44-25.53 122.99-25.71 121.53-25.89 120.14-25.89L120.14-25.89Q118.18-25.89 116.48-25.29 114.78-24.69 113.52-23.57 112.26-22.44 111.52-20.83 110.79-19.21 110.79-17.18L110.79-17.18Q110.79-15.91 111.13-14.72 111.47-13.53 112.17-12.62 112.87-11.7 113.91-11.14 114.95-10.57 116.32-10.57L116.32-10.57Q117.25-10.57 118.24-10.82 119.23-11.06 119.94-11.65L119.94-11.65 120.04-13.56 114.17-13.66 114.46-21Q118.11-21.12 121.75-21.21 125.4-21.29 129.09-21.44L129.09-21.44Z" transform="translate(-1.0299999713897705, 36.220001220703125)"></path></g></g></g></g> <g data-gra="path-slogan" fill-rule="" class="tp-slogan iconsvg-slogansvg" fill="#0085c9" transform="translate(5,82.01225280761719)"><rect x="0" height="1" y="3.9750003814697266" width="39.970001220703125"></rect> <rect height="1" y="3.9750003814697266" width="39.970001220703125" x="79.44000244140625"></rect> <g transform="translate(42.970001220703125,0)"><g transform="scale(1)"><path d="M3.42-4.31L2.06-3.05L2.06 0L0.89 0L0.89-8.58L2.06-8.58L2.06-4.41L6.23-8.58L7.88-8.58L4.27-5.11L7.97 0L6.42 0L3.42-4.31ZM15.66-4.27L15.66-4.27Q15.47-7.64 12.66-7.83L12.66-7.83Q9.80-7.69 9.66-4.27L9.66-4.27Q9.80-0.94 12.66-0.80L12.66-0.80Q15.47-0.98 15.66-4.27ZM16.83-4.27L16.83-4.27Q16.55 0 12.66 0.14L12.66 0.14Q8.72 0 8.44-4.27L8.44-4.27Q8.67-8.72 12.66-8.81L12.66-8.81Q16.55-8.67 16.83-4.27ZM19.59-8.58L23.91-1.64L23.91-8.58L25.03-8.58L25.03 0L23.72 0L19.36-6.94L19.31-6.94L19.31 0L18.19 0L18.19-8.58L19.59-8.58ZM33.23-3.61L30.61-3.61L30.61-4.59L34.36-4.59L34.36 0L33.61 0L33.33-1.08Q32.34 0.09 30.52 0.14L30.52 0.14Q28.78 0.14 27.84-0.75L27.84-0.75Q26.44-2.06 26.48-4.36L26.48-4.36Q26.81-8.63 30.56-8.81L30.56-8.81Q33.75-8.63 34.22-6L34.22-6L33.09-6Q32.63-7.78 30.52-7.83L30.52-7.83Q27.84-7.64 27.70-4.31L27.70-4.31Q27.70-0.75 30.56-0.75L30.56-0.75Q31.59-0.75 32.34-1.31L32.34-1.31Q33.28-2.06 33.23-3.61L33.23-3.61Z" transform="translate(-0.890625, 8.8125)"></path></g></g></g></g></g><defs v-gra="od"></defs></svg>